<?xml version="1.0" standalone="no"?>
<!DOCTYPE svg PUBLIC "-//W3C//DTD SVG 20010904//EN"
 "http://www.w3.org/TR/2001/REC-SVG-20010904/DTD/svg10.dtd">
<svg version="1.0" xmlns="http://www.w3.org/2000/svg"
 width="192.000000pt" height="192.000000pt" viewBox="0 0 192.000000 192.000000"
 preserveAspectRatio="xMidYMid meet">

<g transform="translate(0.000000,192.000000) scale(0.100000,-0.100000)"
fill="#000000" stroke="none">
<path d="M875 1914 c-257 -36 -426 -115 -591 -278 -190 -188 -301 -481 -279
-736 8 -93 44 -252 55 -245 5 3 30 36 56 73 26 37 49 69 50 71 1 1 20 -11 41
-28 102 -82 301 -97 320 -23 9 38 -22 57 -148 86 -114 27 -177 53 -217 90 -48
43 -47 46 54 145 61 61 90 84 82 66 -11 -25 -10 -29 15 -50 15 -13 52 -28 84
-35 90 -17 195 -50 232 -71 19 -11 37 -16 41 -12 4 4 37 90 75 191 l68 182 63
0 64 0 0 -113 c0 -107 -2 -120 -45 -247 -25 -74 -45 -138 -45 -142 0 -4 20 -8
45 -8 l45 0 0 -95 0 -95 -78 0 -78 0 -18 -55 -17 -55 -142 -3 c-315 -5 -393 7
-492 77 -27 20 -51 33 -53 31 -10 -10 82 -179 140 -255 135 -179 335 -306 560
-356 118 -27 310 -22 432 10 184 48 366 158 478 289 63 74 80 101 72 121 -4 9
1 13 13 13 26 -3 97 144 129 268 32 123 37 314 11 432 -84 375 -370 660 -739
738 -71 15 -233 26 -283 19z m535 -974 l0 -410 -133 0 -133 0 -17 54 -17 53
-50 7 -50 7 0 85 c0 75 2 86 19 91 17 4 17 7 -3 77 -19 66 -21 91 -16 252 l5
179 31 3 31 3 53 -138 c28 -76 56 -145 61 -153 5 -9 9 48 9 143 l0 157 105 0
105 0 0 -410z m348 376 c92 -51 132 -124 132 -240 0 -61 -5 -83 -28 -127 -31
-60 -93 -113 -150 -129 -20 -5 -81 -10 -134 -10 l-98 0 0 89 0 89 74 4 c54 2
80 8 95 22 47 42 30 124 -30 145 -18 6 -56 11 -85 11 l-54 0 0 83 c0 46 3 87
8 91 4 4 54 6 112 4 93 -3 111 -7 158 -32z m-1219 9 c59 -15 155 -61 173 -82
11 -14 -9 -49 -69 -122 l-28 -33 -60 30 c-68 34 -164 57 -206 48 -18 -3 -29
-1 -29 6 0 17 -91 3 -138 -21 -38 -19 -80 -81 -83 -122 -1 -8 -5 3 -9 24 -16
83 24 178 96 226 86 59 234 78 353 46z m-349 -875 c0 -5 -4 -10 -10 -10 -5 0
-10 5 -10 10 0 6 5 10 10 10 6 0 10 -4 10 -10z m14 -36 c3 -8 2 -12 -4 -9 -6
3 -10 10 -10 16 0 14 7 11 14 -7z"/>
</g>
</svg>
