<?xml version="1.0" standalone="no"?>
<!DOCTYPE svg PUBLIC "-//W3C//DTD SVG 20010904//EN"
 "http://www.w3.org/TR/2001/REC-SVG-20010904/DTD/svg10.dtd">
<svg version="1.0" xmlns="http://www.w3.org/2000/svg"
 width="192.000000pt" height="192.000000pt" viewBox="0 0 192.000000 192.000000"
 preserveAspectRatio="xMidYMid meet">

<g transform="translate(0.000000,192.000000) scale(0.100000,-0.100000)"
fill="#000000" stroke="none">
<path d="M828 1909 c-248 -36 -481 -173 -630 -369 -68 -89 -143 -246 -170
-355 -29 -120 -31 -314 -4 -430 27 -118 27 -118 80 -44 26 35 51 70 55 78 7
11 16 8 48 -18 102 -82 301 -97 320 -23 9 38 -22 57 -148 86 -114 27 -177 53
-217 90 -48 43 -47 46 54 145 61 61 90 84 82 66 -11 -25 -10 -29 15 -50 15
-13 52 -28 84 -35 90 -17 195 -50 232 -71 19 -11 37 -16 41 -12 4 4 37 90 75
191 l68 182 63 0 64 0 0 -113 c0 -107 -2 -120 -45 -247 -25 -74 -45 -138 -45
-142 0 -4 20 -8 45 -8 l45 0 0 -95 0 -95 -78 0 -78 0 -18 -55 -17 -55 -142 -2
c-315 -6 -393 6 -492 76 -27 20 -51 33 -53 31 -2 -2 10 -35 27 -72 234 -504
829 -706 1318 -448 244 128 418 352 485 621 31 125 31 323 0 448 -25 99 -81
226 -138 312 -197 296 -574 465 -926 413z m582 -969 l0 -410 -133 0 -133 0
-17 54 -17 53 -50 7 -50 7 0 85 c0 75 2 86 19 91 17 4 17 7 -3 77 -19 66 -21
91 -16 252 l5 179 31 3 31 3 53 -138 c28 -76 56 -145 61 -153 5 -9 9 48 9 143
l0 157 105 0 105 0 0 -410z m348 376 c91 -50 132 -127 132 -246 0 -85 -35
-159 -98 -207 -56 -43 -98 -53 -214 -53 l-98 0 0 89 0 89 74 4 c54 2 80 8 95
22 47 42 30 124 -30 145 -18 6 -56 11 -85 11 l-54 0 0 83 c0 46 3 87 8 91 4 4
54 6 112 4 93 -3 111 -7 158 -32z m-1219 9 c59 -15 155 -61 173 -82 11 -14 -9
-49 -69 -122 l-28 -33 -60 30 c-68 34 -164 57 -206 48 -18 -3 -29 -1 -29 6 0
17 -91 3 -138 -21 -38 -19 -80 -81 -83 -122 -1 -8 -5 3 -9 24 -16 83 24 178
96 226 86 59 234 78 353 46z m-349 -875 c0 -5 -4 -10 -10 -10 -5 0 -10 5 -10
10 0 6 5 10 10 10 6 0 10 -4 10 -10z m14 -36 c3 -8 2 -12 -4 -9 -6 3 -10 10
-10 16 0 14 7 11 14 -7z"/>
</g>
</svg>
